Coordinates
version=1
nRows=6
nColumns=36
inDegrees=yes

Units are S.I. units (second, meters, Newtons, ...)
If the header above contains a line with 'inDegrees', this indicates whether rotational values are in degrees (yes) or radians (no).

endheader
time	pelvis_tilt	pelvis_list	pelvis_rotation	pelvis_tx	pelvis_ty	pelvis_tz	hip_flexion_r	hip_adduction_r	hip_rotation_r	knee_angle_r	knee_angle_r_beta	ankle_angle_r	subtalar_angle_r	mtp_angle_r	hip_flexion_l	hip_adduction_l	hip_rotation_l	knee_angle_l	knee_angle_l_beta	ankle_angle_l	subtalar_angle_l	mtp_angle_l	lumbar_extension	lumbar_bending	lumbar_rotation	arm_flex_r	arm_add_r	arm_rot_r	elbow_flex_r	pro_sup_r	arm_flex_l	arm_add_l	arm_rot_l	elbow_flex_l	pro_sup_l
      0.00000000	     -0.27780229	      1.01387535	      0.67863317	     -0.07147217	      1.11261381	     -0.21411868	     26.66074025	      2.14933966	     -0.48345899	     15.63743488	      0.27292473	     -5.12969936	    -10.34255645	     -4.87952205	    -13.34235592	      2.57336723	     -6.64699259	     26.74056596	      0.46671092	      0.64015699	     -2.05208282	     -4.87952205	     -9.44305897	      2.11199682	     -4.35910618	    -14.52933689	     -4.59189368	    -12.61072584	     40.14651004	    109.32731309	    -11.12869450	     -3.16357832	    -12.12383260	     48.83139130	    108.22585330
      0.01000000	      0.00952907	      0.68090253	      0.46046773	     -0.05825249	      1.11473537	     -0.21259630	     26.14748244	      2.58334301	     -0.57175974	     16.52570312	      0.28842793	     -4.92056857	    -10.17828605	     -4.90708286	    -12.46121052	      1.84211384	     -7.39859411	     29.69783467	      0.51832500	     -1.41279663	     -2.70506697	     -4.90708286	     -9.77108067	      2.57902289	     -4.04276484	    -14.44699048	     -4.64445784	    -12.75093654	     40.11798372	    109.28749141	    -11.38852900	     -2.88246063	    -12.30725620	     48.52025638	    108.25485874
      0.02000000	      0.08789304	      0.41808062	      0.29442940	     -0.04523031	      1.11658676	     -0.21124364	     25.84893500	      2.90672195	     -0.66071621	     17.40308636	      0.30374116	     -4.62902322	     -9.75507282	     -4.95481401	    -11.33040199	      1.24952163	     -7.73481996	     32.60020976	      0.56898100	     -3.96585717	     -4.02892563	     -4.95481401	     -9.82006651	      2.98535723	     -3.78687152	    -14.41331758	     -4.65486619	    -13.04808469	     40.21421954	    109.24151744	    -11.61959519	     -2.54787009	    -12.62375907	     48.19204814	    108.34210676
      0.03000000	      0.20094951	      0.23467785	      0.22399315	     -0.03240064	      1.11854319	     -0.21003914	     25.44686752	      3.09529446	     -0.96090246	     18.16142829	      0.31697672	     -4.11802517	     -9.29548308	     -5.02667580	    -10.14923575	      0.73801893	     -7.88719807	     35.50981588	      0.61976320	     -6.83116773	     -5.58602099	     -5.02667580	     -9.95998946	      3.31056128	     -3.61734025	    -14.35894599	     -4.64504833	    -13.34557837	     40.35239148	    109.21897089	    -11.84723133	     -2.29572161	    -12.85607212	     47.91392822	    108.52248953
      0.04000000	      0.29609549	     -0.04492104	      0.27112268	     -0.01976444	      1.12057064	     -0.20888655	     24.93142854	      3.36461407	     -1.28565431	     18.68943374	      0.32619215	     -3.62378910	     -8.93610852	     -5.09103583	     -8.82991749	      0.06711451	     -7.93027304	     38.49551011	      0.67187340	     -9.62421922	     -6.85228211	     -5.09103583	    -10.08269066	      3.73937347	     -3.52854803	    -14.32476113	     -4.67977196	    -13.51069120	     40.54034937	    109.23089998	    -12.08852262	     -2.11747699	    -12.94893650	     47.71103427	    108.68592853
      0.05000000	      0.50576574	     -0.41095740	      0.43962950	     -0.00728913	      1.12282989	     -0.20766426	     24.12233800	      3.72583542	     -1.63448633	     18.91067035	      0.33005346	     -3.11342526	     -8.89044221	     -5.10919246	     -7.52274876	     -0.78974912	     -7.90907181	     41.51967760	      0.72465508	    -11.96914589	     -7.15291875	     -5.10919246	    -10.34022523	      4.24831137	     -3.48708410	    -14.25213651	     -4.73851366	    -13.54343125	     40.71888451	    109.24384177	    -12.28597741	     -2.03301837	    -12.93194439	     47.61659284	    108.73273868
